<svg width="72" height="90" viewBox="0 0 72 90" fill="none" xmlns="http://www.w3.org/2000/svg">
<path d="M68.75 89.2508L71.7339 86.4646L68.9477 83.4807L65.9638 86.2669L68.75 89.2508ZM59.2579 28.1564L58.8634 28.4636L59.2579 28.1564ZM0.79241 0.583141C0.672568 1.06857 0.672675 1.06859 0.67296 1.06866C0.673288 1.06875 0.673747 1.06886 0.674399 1.06902C0.675709 1.06934 0.677709 1.06984 0.680397 1.07051C0.685777 1.07184 0.693916 1.07386 0.704771 1.07657C0.726484 1.08197 0.759071 1.09012 0.802231 1.10098C0.888557 1.12268 1.01718 1.15524 1.18569 1.19844C1.52272 1.28484 2.01929 1.41382 2.65613 1.58385C3.92987 1.92391 5.76455 2.42808 8.00612 3.08394C12.4899 4.39584 18.5986 6.31384 25.1008 8.73851C31.6047 11.1638 38.4924 14.0924 44.538 17.4238C50.5932 20.7604 55.7596 24.4775 58.8634 28.4636L59.6524 27.8492C56.4234 23.7023 51.1152 19.9062 45.0206 16.5479C38.9166 13.1844 31.9795 10.2363 25.4502 7.80154C18.9193 5.36615 12.7865 3.4407 8.28694 2.12418C6.03687 1.46583 4.1945 0.959536 2.91408 0.61769C2.27385 0.446763 1.77407 0.316938 1.43402 0.22976C1.26399 0.186171 1.13389 0.153246 1.04613 0.131174C1.00225 0.120137 0.96895 0.111815 0.946537 0.106231C0.935329 0.10344 0.926845 0.101331 0.92112 0.0999106C0.918255 0.0992021 0.916081 0.098664 0.914604 0.0982967C0.913864 0.0981141 0.913277 0.0979687 0.912907 0.0978771C0.912494 0.0977748 0.912253 0.0977174 0.79241 0.583141ZM58.8634 28.4636C61.5695 31.9389 63.5363 37.2719 64.9509 43.3768C66.3626 49.4687 67.212 56.2726 67.7163 62.6448C68.2204 69.015 68.3786 74.9426 68.4108 79.2783C68.4268 81.4458 68.4114 83.2147 68.3919 84.4411C68.3822 85.0543 68.3715 85.5319 68.3632 85.8558C68.359 86.0177 68.3555 86.1413 68.353 86.2242C68.3518 86.2656 68.3508 86.2969 68.3501 86.3177C68.3498 86.3281 68.3495 86.3359 68.3494 86.3411C68.3493 86.3437 68.3492 86.3456 68.3492 86.3468C68.3492 86.3475 68.3491 86.3479 68.3491 86.3482C68.3491 86.3485 68.3491 86.3486 68.8488 86.3657C69.3485 86.3828 69.3485 86.3826 69.3485 86.3822C69.3486 86.3818 69.3486 86.3813 69.3486 86.3806C69.3487 86.3791 69.3487 86.3771 69.3488 86.3743C69.349 86.3688 69.3493 86.3606 69.3496 86.3499C69.3503 86.3283 69.3513 86.2964 69.3526 86.2542C69.3551 86.1699 69.3587 86.0448 69.3629 85.8813C69.3712 85.5544 69.382 85.0736 69.3918 84.457C69.4114 83.2238 69.4269 81.4471 69.4107 79.2709C69.3785 74.9191 69.2197 68.9666 68.7132 62.5659C68.2068 56.1672 67.3521 49.3094 65.9251 43.151C64.5011 37.0056 62.4948 31.4995 59.6524 27.8492L58.8634 28.4636Z" fill="white"/>
</svg>
